<svg xmlns="http://www.w3.org/2000/svg" width="23.985" height="23.985" viewBox="0 0 23.985 23.985">
  <path id="insta" d="M11.993,2.132a36.772,36.772,0,0,1,4.8.133,6.18,6.18,0,0,1,2.265.4A4.68,4.68,0,0,1,21.32,4.93a6.18,6.18,0,0,1,.4,2.265c0,1.2.133,1.6.133,4.8a36.772,36.772,0,0,1-.133,4.8,6.181,6.181,0,0,1-.4,2.265,4.68,4.68,0,0,1-2.265,2.265,6.181,6.181,0,0,1-2.265.4c-1.2,0-1.6.133-4.8.133a36.772,36.772,0,0,1-4.8-.133,6.181,6.181,0,0,1-2.265-.4,4.68,4.68,0,0,1-2.265-2.265,6.18,6.18,0,0,1-.4-2.265c0-1.2-.133-1.6-.133-4.8a36.772,36.772,0,0,1,.133-4.8,6.18,6.18,0,0,1,.4-2.265A4.786,4.786,0,0,1,3.6,3.6,2.253,2.253,0,0,1,4.93,2.665a6.18,6.18,0,0,1,2.265-.4,36.772,36.772,0,0,1,4.8-.133m0-2.132a39.372,39.372,0,0,0-4.93.133A8.227,8.227,0,0,0,4.131.666,5.216,5.216,0,0,0,2,2,5.216,5.216,0,0,0,.666,4.131,6.071,6.071,0,0,0,.133,7.062,39.372,39.372,0,0,0,0,11.993a39.372,39.372,0,0,0,.133,4.93,8.226,8.226,0,0,0,.533,2.932A5.216,5.216,0,0,0,2,21.987a5.216,5.216,0,0,0,2.132,1.333,8.226,8.226,0,0,0,2.932.533,39.372,39.372,0,0,0,4.93.133,39.372,39.372,0,0,0,4.93-.133,8.227,8.227,0,0,0,2.932-.533,5.591,5.591,0,0,0,3.465-3.465,8.226,8.226,0,0,0,.533-2.932c0-1.333.133-1.732.133-4.93a39.372,39.372,0,0,0-.133-4.93,8.227,8.227,0,0,0-.533-2.932A5.216,5.216,0,0,0,21.987,2,5.216,5.216,0,0,0,19.855.666,8.226,8.226,0,0,0,16.923.133,39.372,39.372,0,0,0,11.993,0m0,5.863a6.031,6.031,0,0,0-6.13,6.13,6.13,6.13,0,1,0,6.13-6.13m0,10.127a3.926,3.926,0,0,1-4-4,3.926,3.926,0,0,1,4-4,3.926,3.926,0,0,1,4,4,3.926,3.926,0,0,1-4,4m6.4-11.859A1.466,1.466,0,1,0,19.855,5.6a1.479,1.479,0,0,0-1.466-1.466" fill="#fff" fill-rule="evenodd"/>
</svg>
