<svg xmlns="http://www.w3.org/2000/svg" width="23.985" height="19.455" viewBox="0 0 23.985 19.455">
  <path id="twitter" d="M45.6,21.455A13.867,13.867,0,0,0,59.587,7.463V6.8a10.831,10.831,0,0,0,2.4-2.532,11.062,11.062,0,0,1-2.8.8A5.184,5.184,0,0,0,61.319,2.4a12.222,12.222,0,0,1-3.065,1.2,4.759,4.759,0,0,0-3.6-1.6,5.006,5.006,0,0,0-4.93,4.93A2.6,2.6,0,0,0,49.859,8,13.777,13.777,0,0,1,39.732,2.8a5.1,5.1,0,0,0-.666,2.532A5.294,5.294,0,0,0,41.2,9.462,4.492,4.492,0,0,1,38.933,8.8h0a4.87,4.87,0,0,0,4,4.8,4.108,4.108,0,0,1-1.333.133,2.268,2.268,0,0,1-.933-.133,5.048,5.048,0,0,0,4.664,3.465A10.061,10.061,0,0,1,39.2,19.19a3.689,3.689,0,0,1-1.2-.133,12.577,12.577,0,0,0,7.6,2.4" transform="translate(-38 -2)" fill="#fff" fill-rule="evenodd"/>
</svg>
