<svg width="24" height="19" viewBox="0 0 24 19" fill="none" xmlns="http://www.w3.org/2000/svg">
<g clip-path="url(#clip0)">
<path d="M23.5055 2.97302C23.2288 1.81052 22.4182 0.894183 21.3903 0.581147C19.5122 0 11.9998 0 11.9998 0C11.9998 0 4.48753 0 2.60943 0.558994C1.60125 0.871824 0.770871 1.81073 0.4942 2.97302C0 5.09637 0 9.5 0 9.5C0 9.5 0 13.9258 0.4942 16.027C0.771054 17.1893 1.58148 18.1058 2.60961 18.4189C4.50731 19 12 19 12 19C12 19 19.5122 19 21.3903 18.441C22.4184 18.1282 23.2288 17.2116 23.5057 16.0493C23.9999 13.9258 23.9999 9.52236 23.9999 9.52236C23.9999 9.52236 24.0197 5.09637 23.5055 2.97302Z" fill="white"/>
<path d="M9.60803 13.5682L15.855 9.4999L9.60803 5.43164V13.5682Z" fill="#180800"/>
</g>
<defs>
<clipPath id="clip0">
<rect width="24" height="19" fill="white"/>
</clipPath>
</defs>
</svg>
