<svg xmlns="http://www.w3.org/2000/svg" width="46" height="46" viewBox="0 0 46 46" fill="none">
    <g clip-path="url(#clip0_1175_6265)">
        <path
            d="M2.83122 28.5957C2.45962 28.5944 2.09141 28.6657 1.74775 28.8055C1.40409 28.9453 1.09174 29.1509 0.828663 29.4105C0.565582 29.67 0.356946 29.9784 0.214738 30.318C0.0725311 30.6575 -0.000444862 31.0215 2.04024e-06 31.389V43.206C0.000895092 43.9465 0.298759 44.6565 0.828258 45.1801C1.35776 45.7038 2.07565 45.9983 2.82448 45.9992H14.7737C15.5227 45.9992 16.2412 45.7049 16.7709 45.1811C17.3005 44.6573 17.5981 43.9468 17.5981 43.206C17.5981 42.4652 17.3005 41.7547 16.7709 41.2309C16.2412 40.707 15.5227 40.4128 14.7737 40.4128H8.02461C7.39813 40.4128 6.7973 40.1666 6.35431 39.7285C5.91132 39.2905 5.66245 38.6963 5.66245 38.0767V31.4023C5.66245 30.6615 5.36487 29.951 4.83518 29.4272C4.30549 28.9034 3.58707 28.6091 2.83797 28.6091L2.83122 28.5957Z"
            fill="#EF402F" />
        <path
            d="M2.08323e-06 8.31336V20.2439C2.08323e-06 20.6067 0.0722737 20.966 0.212691 21.3013C0.353107 21.6365 0.558919 21.9412 0.818376 22.1977C1.07783 22.4543 1.38585 22.6579 1.72485 22.7967C2.06384 22.9356 2.42718 23.0071 2.7941 23.0071C3.16974 23.0075 3.54177 22.9347 3.88893 22.7929C4.2361 22.651 4.55158 22.4429 4.81735 22.1803C5.08312 21.9178 5.29396 21.6061 5.43781 21.2629C5.58166 20.9198 5.6557 20.5519 5.6557 20.1805V13.506C5.6557 12.8927 5.90208 12.3044 6.34064 11.8707C6.7792 11.437 7.37402 11.1934 7.99424 11.1934H14.804C15.5451 11.1934 16.2558 10.9022 16.7798 10.384C17.3037 9.86584 17.5981 9.16301 17.5981 8.43016V8.31669C17.599 7.95959 17.5284 7.60584 17.3905 7.27583C17.2525 6.94582 17.0498 6.64608 16.7942 6.39387C16.5385 6.14167 16.2349 5.94199 15.9009 5.80635C15.5669 5.67071 15.209 5.60179 14.8479 5.60355H2.74011C2.38015 5.60311 2.02364 5.6729 1.69099 5.80893C1.35835 5.94495 1.0561 6.14454 0.801571 6.39625C0.54704 6.64797 0.345222 6.94687 0.207676 7.27584C0.0701299 7.60481 -0.00044204 7.95738 2.08323e-06 8.31336Z"
            fill="#F4B223" />
        <path
            d="M32.8313 40.4127H26.0823C25.7112 40.4123 25.3438 40.4843 25.0009 40.6245C24.658 40.7647 24.3465 40.9704 24.0841 41.2299C23.8217 41.4894 23.6137 41.7975 23.4719 42.1365C23.3301 42.4756 23.2574 42.8391 23.2578 43.206C23.2574 43.5729 23.3301 43.9363 23.4719 44.2754C23.6137 44.6145 23.8217 44.9226 24.0841 45.1821C24.3465 45.4416 24.658 45.6473 25.0009 45.7875C25.3438 45.9277 25.7112 45.9997 26.0823 45.9992H38.0315C38.4024 45.9992 38.7697 45.927 39.1123 45.7866C39.455 45.6462 39.7664 45.4405 40.0287 45.1811C40.2909 44.9217 40.499 44.6138 40.6409 44.2749C40.7829 43.936 40.8559 43.5728 40.8559 43.206V31.3889C40.8564 31.022 40.7836 30.6586 40.6418 30.3195C40.5001 29.9804 40.292 29.6723 40.0297 29.4129C39.7673 29.1534 39.4558 28.9477 39.1129 28.8074C38.77 28.6672 38.4025 28.5953 38.0315 28.5957C37.6603 28.5948 37.2926 28.6665 36.9495 28.8065C36.6065 28.9466 36.2947 29.1523 36.0323 29.4119C35.7698 29.6714 35.5618 29.9797 35.4202 30.319C35.2786 30.6583 35.2061 31.0219 35.207 31.3889V38.0634C35.207 38.6829 34.9581 39.2771 34.5151 39.7152C34.0721 40.1533 33.4713 40.3994 32.8448 40.3994L32.8313 40.4127Z"
            fill="#2C9942" />
        <path
            d="M41.5331 1.13213e-06H28.2308C27.5766 -0.000437645 26.9287 0.12667 26.3242 0.374055C25.7197 0.62144 25.1704 0.984248 24.7078 1.44173C24.2453 1.89921 23.8784 2.44239 23.6282 3.04021C23.3781 3.63802 23.2496 4.27874 23.25 4.92571V18.081C23.2496 18.7279 23.3781 19.3687 23.6282 19.9665C23.8784 20.5643 24.2453 21.1075 24.7078 21.5649C25.1704 22.0224 25.7197 22.3852 26.3242 22.6326C26.9287 22.88 27.5766 23.0071 28.2308 23.0067H41.5331C42.1874 23.0071 42.8352 22.88 43.4397 22.6326C44.0442 22.3852 44.5935 22.0224 45.0561 21.5649C45.5187 21.1075 45.8856 20.5643 46.1357 19.9665C46.3859 19.3687 46.5144 18.7279 46.5139 18.081V4.92571C46.5139 4.27886 46.3851 3.63834 46.1348 3.04072C45.8845 2.44311 45.5176 1.9001 45.0551 1.44271C44.5926 0.985314 44.0435 0.622489 43.4392 0.374949C42.8349 0.127408 42.1872 1.13213e-06 41.5331 1.13213e-06Z"
            fill="#0075C9" />
    </g>
    <defs>
        <clipPath id="clip0_1175_6265">
            <rect width="198" height="46" fill="white" />
        </clipPath>
    </defs>
</svg>