<svg xmlns="http://www.w3.org/2000/svg" width="25" height="24.999" viewBox="0 0 25 24.999">
  <path id="instagram" d="M15.5,3c-3.395,0-3.82.015-5.153.075a9.2,9.2,0,0,0-3.034.582A6.388,6.388,0,0,0,3.656,7.312a9.216,9.216,0,0,0-.582,3.034C3.014,11.679,3,12.1,3,15.5s.014,3.82.075,5.153a9.2,9.2,0,0,0,.582,3.034,6.386,6.386,0,0,0,3.656,3.656,9.216,9.216,0,0,0,3.034.582c1.333.06,1.759.075,5.153.075s3.82-.015,5.153-.075a9.2,9.2,0,0,0,3.034-.582,6.386,6.386,0,0,0,3.656-3.656,9.216,9.216,0,0,0,.582-3.034c.06-1.333.075-1.759.075-5.153s-.015-3.82-.075-5.153a9.2,9.2,0,0,0-.582-3.034,6.386,6.386,0,0,0-3.656-3.656,9.216,9.216,0,0,0-3.034-.582C19.319,3.015,18.894,3,15.5,3m0,2.252c3.337,0,3.732.012,5.05.072a6.944,6.944,0,0,1,2.322.43,4.138,4.138,0,0,1,2.372,2.372,6.937,6.937,0,0,1,.43,2.321c.06,1.319.072,1.712.072,5.051s-.013,3.732-.072,5.05a6.988,6.988,0,0,1-.43,2.322,4.138,4.138,0,0,1-2.372,2.372,6.937,6.937,0,0,1-2.321.43c-1.317.06-1.712.072-5.051.072s-3.734-.013-5.05-.072a6.988,6.988,0,0,1-2.322-.43,4.138,4.138,0,0,1-2.372-2.372,6.893,6.893,0,0,1-.43-2.321c-.06-1.319-.072-1.712-.072-5.051s.012-3.732.072-5.05a6.944,6.944,0,0,1,.43-2.322A4.138,4.138,0,0,1,8.127,5.755a6.893,6.893,0,0,1,2.321-.43c1.319-.06,1.712-.072,5.051-.072m0,14.413A4.166,4.166,0,1,1,19.666,15.5,4.166,4.166,0,0,1,15.5,19.666m0-10.585A6.418,6.418,0,1,0,21.917,15.5,6.418,6.418,0,0,0,15.5,9.081m8.172-.253a1.5,1.5,0,1,1-1.5-1.5,1.5,1.5,0,0,1,1.5,1.5" transform="translate(-3 -3)" fill="#707070" fill-rule="evenodd"/>
</svg>
