<svg width="215" height="58" viewBox="0 0 215 58" fill="none" xmlns="http://www.w3.org/2000/svg">
<path d="M0 54.9985C0 54.9985 6.90554 31.8166 7.93021 27.4278C9.078 22.4894 19.9507 16.8661 20.2064 17.5511L12.0205 49.5117H24.2956L30.3059 19.4718H41.9466L36.8337 47.7286H48.08V55.0041L0 54.9985Z" fill="white"/>
<path d="M106.2 6.869C106.251 7.75033 106.075 8.62998 105.689 9.4238C105.302 10.2176 104.719 10.8991 103.994 11.403C102.064 12.5288 99.8536 13.0814 97.6211 12.996H95.6571V19.496H91.0001V1.228H97.9851C100.128 1.10035 102.261 1.61235 104.112 2.699C104.792 3.15288 105.343 3.77611 105.709 4.50731C106.075 5.2385 106.244 6.05245 106.2 6.869ZM95.6571 9.81H97.2501C98.3648 9.93456 99.4886 9.67529 100.436 9.075C100.782 8.85108 101.066 8.54193 101.258 8.17719C101.451 7.81245 101.546 7.40435 101.536 6.992C101.552 6.6214 101.482 6.25213 101.334 5.91231C101.185 5.57248 100.961 5.27106 100.678 5.031C99.8296 4.52671 98.8403 4.31159 97.8591 4.418H95.7791V9.81H95.6571Z" fill="white"/>
<path d="M112.965 19.368V1.23099H117.622V19.368H112.965Z" fill="white"/>
<path d="M139.04 19.368H122.74V16.917L133.279 4.41699H122.985V1.23099H138.794V3.68199L128.255 16.182H139.04V19.368Z" fill="white"/>
<path d="M165.791 10.299C165.849 11.5867 165.638 12.8724 165.174 14.0747C164.709 15.277 164 16.3698 163.091 17.284C160.795 18.8414 158.084 19.6739 155.309 19.6739C152.534 19.6739 149.823 18.8414 147.527 17.284C146.618 16.3698 145.909 15.277 145.444 14.0747C144.98 12.8724 144.769 11.5867 144.827 10.299C144.769 9.01128 144.98 7.72561 145.444 6.52329C145.909 5.32098 146.618 4.22818 147.527 3.314C149.771 1.59639 152.551 0.727534 155.374 0.861C158.805 0.861 161.374 1.719 163.095 3.312C164.049 4.19249 164.789 5.28036 165.256 6.49176C165.724 7.70315 165.907 9.0057 165.791 10.299ZM149.737 10.299C149.614 11.9246 150.094 13.5385 151.085 14.833C151.627 15.3781 152.279 15.802 152.998 16.0766C153.716 16.3512 154.484 16.4703 155.252 16.426C158.928 16.426 160.889 14.343 160.889 10.299C160.889 6.255 159.051 4.172 155.374 4.172C154.605 4.11684 153.834 4.23089 153.114 4.50612C152.394 4.78135 151.743 5.21106 151.207 5.765C150.665 6.37991 150.254 7.09949 150 7.87931C149.747 8.65913 149.656 9.48264 149.733 10.299H149.737Z" fill="white"/>
<path d="M193.813 19.368H187.813L178.254 5.64299H178.131C178.304 7.35307 178.386 9.07118 178.376 10.79V19.368H174.205V1.23099H180.087L189.646 14.831H189.769C189.646 12.503 189.524 10.787 189.524 9.80599V1.23099H193.691L193.813 19.368Z" fill="white"/>
<path d="M214.934 19.368H202.189V1.23099H214.934V4.41699H206.968V8.46099H214.444V11.647H206.968V16.304H214.934V19.368Z" fill="white"/>
<path d="M11 10.6611H62.0189C63.3949 11.9606 62.0189 15.6013 59.7686 19.8901H49.6391L46.3875 34.84H56.1413C71.7716 33.9298 83.6507 8.71027 66.7734 0H23.2549C15.6265 2.73157 12.2501 6.50061 11 10.6611Z" fill="#E86B00"/>
<path d="M91.0001 40.892V27.657H93.8191V40.892H91.0001Z" fill="#E86B00"/>
<path d="M111.834 40.892H108.28L102.52 30.843H102.397C102.52 32.559 102.52 33.907 102.52 34.643V40.893H100.069V27.657H103.623L109.383 37.583C109.26 35.867 109.26 34.642 109.26 33.907V27.657H111.834V40.892Z" fill="#E86B00"/>
<path d="M124.13 40.892H121.311V27.657H128.911V29.985H124.132V33.417H128.666V35.745H124.132V40.892H124.13Z" fill="#E86B00"/>
<path d="M148.382 34.275C148.497 36.0902 147.929 37.8828 146.789 39.3C145.499 40.4261 143.844 41.0465 142.132 41.0465C140.42 41.0465 138.765 40.4261 137.475 39.3C136.3 37.9018 135.727 36.0948 135.882 34.275C135.767 32.4598 136.335 30.6672 137.475 29.25C138.774 28.1425 140.425 27.5342 142.132 27.5342C143.839 27.5342 145.49 28.1425 146.789 29.25C147.929 30.6672 148.497 32.4598 148.382 34.275V34.275ZM138.701 34.275C138.604 35.4433 138.907 36.6098 139.559 37.584C139.865 37.9645 140.26 38.2638 140.709 38.4556C141.157 38.6475 141.647 38.7259 142.133 38.684C144.339 38.684 145.442 37.2133 145.442 34.272C145.442 31.3307 144.339 29.86 142.133 29.86C141.647 29.8181 141.157 29.8965 140.709 30.0884C140.26 30.2802 139.865 30.5795 139.559 30.96C138.962 31.9601 138.665 33.1109 138.704 34.275H138.701Z" fill="#E86B00"/>
<path d="M161.188 40.892H158.369V29.985H154.815V27.657H164.741V29.985H161.187L161.188 40.892Z" fill="#E86B00"/>
<path d="M179.061 40.892H171.461V27.657H179.061V29.985H174.282V32.927H178.694V35.257H174.282V38.688H179.061V40.892Z" fill="#E86B00"/>
<path d="M194.355 29.74C193.881 29.75 193.416 29.865 192.992 30.0769C192.568 30.2887 192.196 30.5921 191.904 30.965C191.266 31.9455 190.965 33.1071 191.046 34.274C191.046 37.2153 192.149 38.686 194.355 38.686C195.537 38.678 196.705 38.4278 197.786 37.951V40.279C196.629 40.7784 195.367 40.9888 194.11 40.892C193.292 40.9653 192.468 40.8486 191.703 40.5509C190.938 40.2532 190.251 39.7827 189.698 39.176C188.609 37.7377 188.085 35.9505 188.224 34.152C188.219 32.9291 188.469 31.7186 188.959 30.598C189.424 29.6041 190.198 28.7873 191.165 28.27C192.163 27.6729 193.312 27.3751 194.474 27.412C195.803 27.4164 197.109 27.7533 198.274 28.392L197.416 30.72C196.949 30.464 196.456 30.2585 195.945 30.107C195.335 29.986 194.845 29.863 194.355 29.74Z" fill="#E86B00"/>
<path d="M214.33 40.892H211.511V35.257H206.241V41.017H203.423V27.657H206.242V32.804H211.512V27.657H214.331L214.33 40.892Z" fill="#E86B00"/>
<path d="M96.4011 53.1055C96.3568 53.7174 96.1303 54.1992 95.7214 54.5508C95.3152 54.9023 94.7787 55.0781 94.112 55.0781C93.3829 55.0781 92.8086 54.8333 92.3894 54.3438C91.9727 53.8516 91.7644 53.1771 91.7644 52.3203V51.9727C91.7644 51.4258 91.8607 50.944 92.0534 50.5273C92.2461 50.1107 92.5209 49.7917 92.8777 49.5703C93.237 49.3464 93.6537 49.2344 94.1277 49.2344C94.7839 49.2344 95.3126 49.4102 95.7136 49.7617C96.1146 50.1133 96.3464 50.6068 96.4089 51.2422H95.237C95.2084 50.875 95.1055 50.6094 94.9284 50.4453C94.754 50.2786 94.487 50.1953 94.1277 50.1953C93.737 50.1953 93.4441 50.3359 93.2487 50.6172C93.056 50.8958 92.9571 51.3294 92.9519 51.918V52.3477C92.9519 52.9622 93.0443 53.4115 93.2292 53.6953C93.4167 53.9792 93.711 54.1211 94.112 54.1211C94.474 54.1211 94.7435 54.0391 94.9206 53.875C95.1003 53.7083 95.2032 53.4518 95.2292 53.1055H96.4011ZM101.588 52.918H100.655V55H99.4828V49.3125H101.596C102.268 49.3125 102.786 49.4622 103.151 49.7617C103.515 50.0612 103.698 50.4844 103.698 51.0312C103.698 51.4193 103.613 51.7435 103.444 52.0039C103.277 52.2617 103.023 52.4674 102.682 52.6211L103.912 54.9453V55H102.655L101.588 52.918ZM100.655 51.9688H101.6C101.894 51.9688 102.122 51.8945 102.284 51.7461C102.445 51.5951 102.526 51.388 102.526 51.125C102.526 50.8568 102.449 50.6458 102.295 50.4922C102.144 50.3385 101.911 50.2617 101.596 50.2617H100.655V51.9688ZM110.326 52.5352H108.076V54.0586H110.717V55H106.904V49.3125H110.709V50.2617H108.076V51.6172H110.326V52.5352ZM116.927 53.8281H114.873L114.482 55H113.236L115.353 49.3125H116.439L118.568 55H117.322L116.927 53.8281ZM115.189 52.8789H116.611L115.896 50.75L115.189 52.8789ZM125.458 50.2617H123.716V55H122.544V50.2617H120.826V49.3125H125.458V50.2617ZM129.454 55H128.282V49.3125H129.454V55ZM137.481 55H136.309L134.028 51.2578V55H132.856V49.3125H134.028L136.313 53.0625V49.3125H137.481V55ZM145.317 54.2812C145.106 54.5339 144.808 54.7305 144.422 54.8711C144.037 55.0091 143.61 55.0781 143.141 55.0781C142.649 55.0781 142.217 54.9714 141.844 54.7578C141.474 54.5417 141.188 54.2292 140.985 53.8203C140.784 53.4115 140.681 52.931 140.676 52.3789V51.9922C140.676 51.4245 140.771 50.9336 140.961 50.5195C141.154 50.1029 141.43 49.7852 141.79 49.5664C142.152 49.3451 142.575 49.2344 143.059 49.2344C143.734 49.2344 144.261 49.3958 144.641 49.7188C145.021 50.0391 145.247 50.5065 145.317 51.1211H144.176C144.124 50.7956 144.008 50.5573 143.829 50.4062C143.652 50.2552 143.407 50.1797 143.094 50.1797C142.696 50.1797 142.392 50.3294 142.184 50.6289C141.976 50.9284 141.87 51.3737 141.868 51.9648V52.3281C141.868 52.9245 141.981 53.375 142.208 53.6797C142.434 53.9844 142.766 54.1367 143.204 54.1367C143.644 54.1367 143.958 54.043 144.145 53.8555V52.875H143.079V52.0117H145.317V54.2812ZM157.515 55H156.344V52.5625H154.058V55H152.887V49.3125H154.058V51.6172H156.344V49.3125H157.515V55ZM164.066 53.8281H162.011L161.621 55H160.375L162.492 49.3125H163.578L165.707 55H164.46L164.066 53.8281ZM162.328 52.8789H163.75L163.035 50.75L162.328 52.8789ZM169.722 52.9961V55H168.55V49.3125H170.769C171.196 49.3125 171.571 49.3906 171.894 49.5469C172.219 49.7031 172.469 49.9258 172.644 50.2148C172.818 50.5013 172.905 50.8281 172.905 51.1953C172.905 51.7526 172.714 52.1927 172.331 52.5156C171.951 52.8359 171.424 52.9961 170.749 52.9961H169.722ZM169.722 52.0469H170.769C171.079 52.0469 171.314 51.974 171.476 51.8281C171.64 51.6823 171.722 51.474 171.722 51.2031C171.722 50.9245 171.64 50.6992 171.476 50.5273C171.312 50.3555 171.085 50.2669 170.796 50.2617H169.722V52.0469ZM177.198 52.9961V55H176.026V49.3125H178.245C178.672 49.3125 179.047 49.3906 179.37 49.5469C179.696 49.7031 179.946 49.9258 180.12 50.2148C180.294 50.5013 180.382 50.8281 180.382 51.1953C180.382 51.7526 180.19 52.1927 179.807 52.5156C179.427 52.8359 178.9 52.9961 178.225 52.9961H177.198ZM177.198 52.0469H178.245C178.555 52.0469 178.791 51.974 178.952 51.8281C179.116 51.6823 179.198 51.474 179.198 51.2031C179.198 50.9245 179.116 50.6992 178.952 50.5273C178.788 50.3555 178.561 50.2669 178.272 50.2617H177.198V52.0469ZM184.749 55H183.577V49.3125H184.749V55ZM192.776 55H191.604L189.323 51.2578V55H188.151V49.3125H189.323L191.608 53.0625V49.3125H192.776V55ZM199.533 52.5352H197.283V54.0586H199.924V55H196.111V49.3125H199.916V50.2617H197.283V51.6172H199.533V52.5352ZM205.873 53.5078C205.873 53.2865 205.795 53.1172 205.638 53C205.482 52.8802 205.201 52.7552 204.795 52.625C204.388 52.4922 204.067 52.362 203.83 52.2344C203.184 51.8854 202.861 51.4154 202.861 50.8242C202.861 50.5169 202.947 50.2435 203.119 50.0039C203.293 49.7617 203.542 49.5729 203.865 49.4375C204.19 49.3021 204.555 49.2344 204.959 49.2344C205.365 49.2344 205.727 49.3086 206.045 49.457C206.362 49.6029 206.608 49.8099 206.783 50.0781C206.96 50.3464 207.048 50.651 207.048 50.9922H205.877C205.877 50.7318 205.795 50.5299 205.63 50.3867C205.466 50.2409 205.236 50.168 204.939 50.168C204.653 50.168 204.43 50.2292 204.271 50.3516C204.112 50.4714 204.033 50.6302 204.033 50.8281C204.033 51.013 204.125 51.168 204.31 51.293C204.498 51.418 204.772 51.5352 205.134 51.6445C205.801 51.8451 206.287 52.0938 206.591 52.3906C206.896 52.6875 207.048 53.0573 207.048 53.5C207.048 53.9922 206.862 54.3789 206.49 54.6602C206.117 54.9388 205.616 55.0781 204.986 55.0781C204.548 55.0781 204.15 54.9987 203.791 54.8398C203.431 54.6784 203.157 54.4583 202.966 54.1797C202.779 53.901 202.685 53.5781 202.685 53.2109H203.861C203.861 53.8385 204.236 54.1523 204.986 54.1523C205.265 54.1523 205.482 54.0964 205.638 53.9844C205.795 53.8698 205.873 53.7109 205.873 53.5078ZM213.107 53.5078C213.107 53.2865 213.029 53.1172 212.872 53C212.716 52.8802 212.435 52.7552 212.029 52.625C211.622 52.4922 211.301 52.362 211.064 52.2344C210.418 51.8854 210.095 51.4154 210.095 50.8242C210.095 50.5169 210.181 50.2435 210.353 50.0039C210.527 49.7617 210.776 49.5729 211.099 49.4375C211.424 49.3021 211.789 49.2344 212.193 49.2344C212.599 49.2344 212.961 49.3086 213.279 49.457C213.596 49.6029 213.842 49.8099 214.017 50.0781C214.194 50.3464 214.283 50.651 214.283 50.9922H213.111C213.111 50.7318 213.029 50.5299 212.865 50.3867C212.7 50.2409 212.47 50.168 212.173 50.168C211.887 50.168 211.664 50.2292 211.505 50.3516C211.346 50.4714 211.267 50.6302 211.267 50.8281C211.267 51.013 211.359 51.168 211.544 51.293C211.732 51.418 212.006 51.5352 212.368 51.6445C213.035 51.8451 213.521 52.0938 213.825 52.3906C214.13 52.6875 214.283 53.0573 214.283 53.5C214.283 53.9922 214.096 54.3789 213.724 54.6602C213.352 54.9388 212.85 55.0781 212.22 55.0781C211.783 55.0781 211.384 54.9987 211.025 54.8398C210.665 54.6784 210.391 54.4583 210.2 54.1797C210.013 53.901 209.919 53.5781 209.919 53.2109H211.095C211.095 53.8385 211.47 54.1523 212.22 54.1523C212.499 54.1523 212.716 54.0964 212.872 53.9844C213.029 53.8698 213.107 53.7109 213.107 53.5078Z" fill="white"/>
<path d="M83 1.001V58.001" stroke="white" stroke-miterlimit="10"/>
</svg>
