<svg xmlns="http://www.w3.org/2000/svg" width="30" height="25" viewBox="0 0 30 25">
  <path id="twitter" d="M30,5.925A8.062,8.062,0,0,1,28.88,7.53a8.269,8.269,0,0,1-2.023,1.706q.034.267.05.5a18.2,18.2,0,0,1-1.288,6.973,18.362,18.362,0,0,1-7.308,9.08,19.214,19.214,0,0,1-11.438,2.09A13.134,13.134,0,0,1,0,25.222,12.807,12.807,0,0,0,9.164,22.58c-2.812.071-4.855-1.963-5.819-4.314a3.913,3.913,0,0,0,1.3.067,12.134,12.134,0,0,0,1.472-.2A6.9,6.9,0,0,1,1.94,14.887a6.993,6.993,0,0,1-.7-3.077,5.876,5.876,0,0,0,2.776.836A7.172,7.172,0,0,1,1.288,8.215a8.206,8.206,0,0,1,.753-4A21.02,21.02,0,0,0,9.181,9.569a14.792,14.792,0,0,0,5.6,1.171,7.487,7.487,0,0,1,.753-4.749A6.47,6.47,0,0,1,19.4,3.182a5.7,5.7,0,0,1,5.719,1.773A10.18,10.18,0,0,0,29.1,3.482a6.038,6.038,0,0,1-2.743,3.545A17.39,17.39,0,0,0,30,5.924Z" transform="translate(0 -2.999)" fill="#707070"/>
</svg>
