<?xml version="1.0" encoding="utf-8"?>
<!-- Generator: Adobe Illustrator 22.1.0, SVG Export Plug-In . SVG Version: 6.00 Build 0)  -->
<svg version="1.1" id="Capa_1" xmlns="http://www.w3.org/2000/svg" xmlns:xlink="http://www.w3.org/1999/xlink" x="0px" y="0px"
	 viewBox="0 0 55.3 55.3" style="enable-background:new 0 0 55.3 55.3;" xml:space="preserve">
<style type="text/css">
	.st0{fill:#FFFFFF;}
</style>
<g>
	<g>
		<g id="XMLID_2_">
			<g>
				<path d="M54.1,44c0,1.1-0.2,2.3-0.5,3.3c-0.1,0.3-0.4,0.6-0.8,0.7c-0.4,0.1-0.7,0-1-0.3l-4.4-4.3h-2.1L43,45.8v2.1l4.4,4.4
					c0.3,0.3,0.4,0.6,0.3,1c-0.1,0.3-0.3,0.6-0.7,0.8c-1.1,0.4-2.2,0.5-3.3,0.5c-5.8,0-10.5-4.7-10.5-10.5c0-0.9,0.1-1.8,0.3-2.7
					l-6.2-6.2l-7.5-7.5l-6.2-6.2c-3,0.8-6.2,0.3-8.8-1.6c-2.8-2-4.4-5.1-4.4-8.5c0-1.1,0.2-2.3,0.5-3.3c0.1-0.3,0.4-0.6,0.8-0.7
					c0.4-0.1,0.7,0,1,0.3L7,11.9h2.1l2.4-2.4V7.4L7.1,3.1c-0.3-0.3-0.4-0.6-0.3-1s0.3-0.6,0.7-0.8C8.6,1,9.7,0.8,10.9,0.8
					c3.4,0,6.5,1.6,8.5,4.4c1.9,2.6,2.4,5.8,1.6,8.8l7.7,7.7l4.5,4.5l7.7,7.7c3-0.8,6.2-0.3,8.8,1.6C52.5,37.5,54.1,40.6,54.1,44z
					 M51.9,44.9c0-0.3,0.1-0.6,0.1-0.9c0-2.7-1.3-5.2-3.5-6.8c-2.2-1.6-5-2-7.6-1.1c-0.4,0.1-0.8,0-1.1-0.3c0,0-1-1-2.5-2.5
					C31.8,27.7,19.1,15.1,19.1,15c-0.3-0.3-0.4-0.7-0.3-1.1c0.9-2.6,0.5-5.4-1.1-7.6c-1.6-2.2-4.1-3.5-6.8-3.5c-0.3,0-0.6,0-0.9,0
					l3.3,3.3c0.2,0.2,0.3,0.5,0.3,0.7v3c0,0.3-0.1,0.5-0.3,0.7l-3,3C10.1,13.9,9.8,14,9.6,14h-3c-0.3,0-0.5-0.1-0.7-0.3l-3.3-3.3
					c0,0.3-0.1,0.6-0.1,0.9c0,2.7,1.3,5.2,3.5,6.8c2.2,1.6,5,2,7.6,1.1c0.4-0.1,0.8,0,1.1,0.3c2.1,2.1,6,6,10,10s8.2,8.2,10.8,10.8
					c0.3,0.3,0.4,0.7,0.3,1.1c-0.3,0.9-0.4,1.8-0.4,2.7c0,4.6,3.8,8.4,8.4,8.4c0.3,0,0.6,0,0.9,0L41.2,49c-0.2-0.2-0.3-0.5-0.3-0.7
					v-3c0-0.3,0.1-0.6,0.3-0.8l3-2.9c0.2-0.2,0.5-0.3,0.7-0.3h3c0.3,0,0.5,0.1,0.7,0.3L51.9,44.9z"/>
				<path class="st0" d="M52,44c0,0.3,0,0.6-0.1,0.9l-3.3-3.3c-0.2-0.2-0.5-0.3-0.7-0.3h-3c-0.3,0-0.5,0.1-0.7,0.3l-3,2.9
					c-0.2,0.2-0.3,0.5-0.3,0.8v3c0,0.3,0.1,0.5,0.3,0.7l3.3,3.3c-0.3,0-0.6,0-0.9,0c-4.6,0-8.4-3.8-8.4-8.4c0-0.9,0.1-1.8,0.4-2.7
					c0.1-0.4,0-0.8-0.3-1.1c-2.6-2.6-6.8-6.8-10.8-10.8l1.3-1.3l8.2,8.2c0.4,0.4,1.1,0.4,1.5,0s0.4-1.1,0-1.5l1.7-1.6
					c1.5,1.5,2.5,2.5,2.5,2.5c0.3,0.3,0.7,0.4,1.1,0.3c2.6-0.9,5.3-0.5,7.6,1.1C50.7,38.8,52,41.2,52,44z M38.9,38.6
					c0-0.6-0.5-1-1-1s-1,0.5-1,1c0,0.6,0.5,1,1,1S38.9,39.2,38.9,38.6z"/>
				<circle cx="37.9" cy="38.6" r="1"/>
				<path class="st0" d="M37.3,33.2l-1.7,1.6L22.5,21.8c-0.4-0.4-1.1-0.4-1.5,0c-0.4,0.4-0.4,1.1,0,1.5l4.9,4.9l-1.3,1.3
					c-4-4-7.9-7.9-10-10c-0.3-0.3-0.7-0.4-1.1-0.3C11,20.1,8.2,19.7,6,18.1c-2.2-1.6-3.5-4.1-3.5-6.8c0-0.3,0-0.6,0.1-0.9l3.3,3.3
					C6,13.9,6.3,14,6.6,14h3c0.3,0,0.5-0.1,0.7-0.3l3-3c0.2-0.2,0.3-0.5,0.3-0.7V7c0-0.3-0.1-0.6-0.3-0.7L10,2.9c0.3,0,0.6,0,0.9,0
					c2.7,0,5.2,1.3,6.8,3.5c1.6,2.2,2,5,1.1,7.6c-0.1,0.4,0,0.8,0.3,1.1C19.1,15.1,31.8,27.7,37.3,33.2z M19.9,19.5c0-0.6-0.5-1-1-1
					c-0.6,0-1.1,0.5-1.1,1s0.5,1.1,1.1,1.1C19.4,20.6,19.9,20.1,19.9,19.5z"/>
				<path d="M35.7,34.9c0.4,0.4,0.4,1.1,0,1.5s-1.1,0.4-1.5,0l-8.2-8.2L21,23.2c-0.4-0.4-0.4-1.1,0-1.5c0.4-0.4,1.1-0.4,1.5,0
					L35.7,34.9z"/>
				<path d="M18.8,18.5c0.6,0,1,0.5,1,1s-0.5,1.1-1,1.1c-0.6,0-1.1-0.5-1.1-1.1S18.2,18.5,18.8,18.5z"/>
			</g>
			<g>
			</g>
		</g>
	</g>
	<g id="XMLID_1_">
		<g>
			<path d="M52.6,2.6c3.5,3.5,3.5,9.2,0,12.7L16.5,51.4c0,0,0,0,0,0c0,0-0.1,0-0.1,0.1c-0.1,0-0.1,0.1-0.2,0.1c0,0-0.1,0-0.1,0
				s0,0-0.1,0L1.2,55.2c-0.1,0-0.1,0-0.2,0c-0.1,0-0.3,0-0.4-0.1S0.4,55,0.3,55c-0.1-0.1-0.1-0.2-0.2-0.3c0,0,0,0,0-0.1
				C0,54.5,0,54.4,0,54.3c0,0,0,0,0,0c0-0.1,0-0.1,0-0.2l3.5-14.9c0,0,0,0,0,0c0,0,0,0,0-0.1c0-0.1,0.1-0.2,0.1-0.2
				c0,0,0-0.1,0.1-0.1c0,0,0,0,0-0.1L39.9,2.6C43.4-0.9,49.1-0.9,52.6,2.6z M51.8,13.2c2.1-2.7,1.8-6.7-0.6-9.1
				c-2.5-2.5-6.4-2.7-9.1-0.7L51.8,13.2z M49.1,16.1l1.4-1.4l-9.9-9.9l-1.4,1.4L49.1,16.1z M46.3,18.9l1.4-1.4l-9.9-9.9L36.3,9
				L46.3,18.9z M17.2,48l27.7-27.7l-9.9-9.9L7.3,38.1l3.2-0.3l22.4-22.4c0.4-0.4,1-0.4,1.4,0c0.4,0.4,0.4,1,0,1.4L11.9,39.2
				l-0.5,4.8l4.8-0.5L38.5,21c0.4-0.4,1-0.4,1.4,0c0.4,0.4,0.4,1,0,1.4L17.5,44.8L17.2,48z M14.9,49.9l0.5-4.4L10.3,46
				c0,0-0.1,0-0.1,0s-0.1,0-0.1,0c0,0-0.1,0-0.1,0c-0.1,0-0.1,0-0.2-0.1c0,0-0.1,0-0.1-0.1c-0.1,0-0.1-0.1-0.2-0.1
				c0,0-0.1-0.1-0.1-0.1c0-0.1-0.1-0.1-0.1-0.2c0,0,0-0.1-0.1-0.2c0,0,0-0.1,0-0.1c0,0,0-0.1,0-0.1c0,0,0-0.1,0-0.1l0.6-5.1
				l-4.4,0.5L2.8,51l0.8-0.8c0.4-0.4,1-0.4,1.4,0s0.4,1,0,1.4l-0.8,0.8L14.9,49.9z"/>
			<path class="st0" d="M51.2,4.1c2.5,2.5,2.7,6.4,0.6,9.1l-9.8-9.8C44.8,1.4,48.7,1.6,51.2,4.1z"/>
			<rect x="43.8" y="3.4" transform="matrix(0.7071 -0.7071 0.7071 0.7071 5.7724 34.7557)" class="st0" width="2" height="14"/>
			<rect x="41" y="6.2" transform="matrix(0.7071 -0.7071 0.7071 0.7071 2.9424 33.5835)" class="st0" width="2" height="14"/>
			<path class="st0" d="M44.8,20.3L17.2,48l0.4-3.2l22.4-22.4c0.4-0.4,0.4-1,0-1.4c-0.4-0.4-1-0.4-1.4,0L16.1,43.4l-4.8,0.5l0.5-4.8
				l22.4-22.4c0.4-0.4,0.4-1,0-1.4c-0.4-0.4-1-0.4-1.4,0L10.4,37.7l-3.2,0.3l27.7-27.7L44.8,20.3z"/>
			<path class="st0" d="M15.4,45.5l-0.5,4.4L4.2,52.5L5,51.7c0.4-0.4,0.4-1,0-1.4s-1-0.4-1.4,0L2.8,51l2.6-10.7l4.4-0.5L9.2,45
				c0,0,0,0.1,0,0.1c0,0,0,0.1,0,0.1c0,0,0,0.1,0,0.1c0,0.1,0,0.1,0.1,0.2c0,0.1,0.1,0.1,0.1,0.2c0,0,0.1,0.1,0.1,0.1
				c0.1,0,0.1,0.1,0.2,0.1c0,0,0.1,0.1,0.1,0.1c0.1,0,0.1,0,0.2,0.1c0,0,0.1,0,0.1,0c0,0,0.1,0,0.1,0s0.1,0,0.1,0L15.4,45.5z"/>
		</g>
		<g>
		</g>
	</g>
</g>
</svg>
